<svg width="21" height="15" viewBox="0 0 21 15" fill="none" xmlns="http://www.w3.org/2000/svg">
<path fill-rule="evenodd" clip-rule="evenodd" d="M2.7337 1.31775C2.62539 0.77619 2.09857 0.424973 1.55701 0.533285C1.01545 0.641597 0.66423 1.16842 0.772542 1.70998L0.901863 2.35659C1.26903 4.19241 2.88094 5.51387 4.75312 5.51387C5.94218 5.51387 7.02625 4.98082 7.75312 4.1215C8.47999 4.98082 9.56406 5.51387 10.7531 5.51387C11.9422 5.51387 13.0263 4.98082 13.7531 4.1215C14.48 4.98082 15.5641 5.51387 16.7531 5.51387C18.6253 5.51387 20.2372 4.19241 20.6044 2.35659L20.7337 1.70998C20.842 1.16842 20.4908 0.641597 19.9492 0.533285C19.4077 0.424973 18.8809 0.77619 18.7725 1.31775L18.6432 1.96435C18.463 2.86533 17.6719 3.51387 16.7531 3.51387C15.8343 3.51387 15.0432 2.86533 14.863 1.96435L14.7383 1.34052C14.7279 1.28175 14.7123 1.22439 14.692 1.16907C14.5926 0.899326 14.3789 0.677851 14.0979 0.575037C13.9893 0.535021 13.8728 0.513545 13.7531 0.513672C13.6334 0.513545 13.517 0.535022 13.4083 0.575037C13.1273 0.677852 12.9137 0.899326 12.8143 1.16907C12.7939 1.22439 12.7783 1.28175 12.768 1.34052L12.6432 1.96435C12.463 2.86533 11.6719 3.51387 10.7531 3.51387C9.83431 3.51387 9.04322 2.86533 8.86302 1.96435L8.73825 1.34047C8.7024 1.13712 8.60417 0.950809 8.4603 0.806682C8.35985 0.706046 8.23715 0.625977 8.09792 0.575037C7.98928 0.535021 7.87282 0.513545 7.75312 0.513672C7.48349 0.513384 7.23025 0.622728 7.04597 0.806659C6.94532 0.907116 6.86524 1.02982 6.81429 1.16907C6.79392 1.22437 6.77836 1.28171 6.768 1.34047L6.64322 1.96435C6.46303 2.86533 5.67194 3.51387 4.75312 3.51387C3.83431 3.51387 3.04322 2.86533 2.86302 1.96435L2.7337 1.31775ZM2.7337 10.3177C2.62539 9.77619 2.09857 9.42497 1.55701 9.53329C1.01545 9.6416 0.66423 10.1684 0.772542 10.71L0.901863 11.3566C1.26903 13.1924 2.88094 14.5139 4.75312 14.5139C5.94218 14.5139 7.02625 13.9808 7.75312 13.1215C8.47999 13.9808 9.56406 14.5139 10.7531 14.5139C11.9422 14.5139 13.0263 13.9808 13.7531 13.1215C14.48 13.9808 15.5641 14.5139 16.7531 14.5139C18.6253 14.5139 20.2372 13.1924 20.6044 11.3566L20.7337 10.71C20.842 10.1684 20.4908 9.6416 19.9492 9.53329C19.4077 9.42497 18.8809 9.77619 18.7725 10.3177L18.6432 10.9644C18.463 11.8653 17.6719 12.5139 16.7531 12.5139C15.8343 12.5139 15.0432 11.8653 14.863 10.9644L14.7383 10.3405C14.7024 10.1373 14.6043 9.95105 14.4606 9.80694C14.3601 9.70619 14.2373 9.62602 14.0979 9.57504C13.9893 9.53502 13.8728 9.51355 13.7531 9.51367C13.4834 9.51338 13.2301 9.6228 13.0458 9.80683C12.9452 9.90725 12.8652 10.0299 12.8143 10.1691C12.7939 10.2244 12.7783 10.2817 12.768 10.3405L12.6432 10.9644C12.463 11.8653 11.6719 12.5139 10.7531 12.5139C9.83431 12.5139 9.04322 11.8653 8.86302 10.9644L8.73825 10.3405C8.72789 10.2817 8.71232 10.2244 8.69195 10.1691C8.59259 9.89933 8.37894 9.67785 8.09792 9.57504C7.98928 9.53502 7.87282 9.51355 7.75312 9.51367C7.63343 9.51355 7.51696 9.53502 7.40832 9.57504C7.13858 9.67439 6.91711 9.88805 6.81429 10.1691C6.79392 10.2244 6.77836 10.2817 6.768 10.3405L6.64322 10.9644C6.46303 11.8653 5.67194 12.5139 4.75312 12.5139C3.83431 12.5139 3.04322 11.8653 2.86302 10.9644L2.7337 10.3177Z" fill="#839393"/>
</svg>
