<svg width="21" height="19" viewBox="0 0 21 19" fill="none" xmlns="http://www.w3.org/2000/svg">
<path fill-rule="evenodd" clip-rule="evenodd" d="M6.19563 1.65725C6.92754 0.925342 7.92022 0.51416 8.9553 0.51416C11.1635 0.51416 12.9319 2.34464 12.8558 4.55153L12.8523 4.65211C12.778 6.80627 11.0101 8.51416 8.85467 8.51416H4.75293C4.20064 8.51416 3.75293 8.06644 3.75293 7.51416C3.75293 6.96188 4.20064 6.51416 4.75293 6.51416H8.85467C9.93239 6.51416 10.8163 5.66022 10.8535 4.58313L10.8569 4.48256C10.8941 3.4066 10.0319 2.51416 8.9553 2.51416C8.45065 2.51416 7.96668 2.71463 7.60984 3.07147L7.46003 3.22127C7.06951 3.61179 6.43634 3.61179 6.04582 3.22126C5.6553 2.83074 5.6553 2.19757 6.04583 1.80705L6.19563 1.65725ZM15.9309 3.83092C16.3836 3.62223 16.8761 3.51416 17.3745 3.51416C19.2484 3.51416 20.768 5.02221 20.8215 6.87864C20.8774 8.81718 19.3342 10.4574 17.3772 10.4773L13.7631 10.5141C13.2108 10.5197 12.7586 10.0766 12.753 9.52434C12.7474 8.97208 13.1905 8.51983 13.7428 8.51421L17.3568 8.47743C18.177 8.46909 18.8465 7.77393 18.8223 6.93625C18.7995 6.14482 18.1497 5.51416 17.3745 5.51416C17.1652 5.51416 16.9584 5.55954 16.7683 5.64718L16.1716 5.92229C15.6701 6.15353 15.076 5.9344 14.8448 5.43285C14.6136 4.9313 14.8327 4.33727 15.3342 4.10603L15.9309 3.83092ZM10.5483 18.3892C9.41452 18.3892 8.34915 17.8466 7.68227 16.9297L7.44419 16.6023C7.11936 16.1557 7.21811 15.5303 7.66476 15.2054C8.11141 14.8806 8.73683 14.9793 9.06167 15.426L9.29974 15.7533C9.59027 16.1528 10.0544 16.3892 10.5483 16.3892C11.401 16.3892 12.0922 15.6979 12.0922 14.8453V14.4517C12.0922 13.3816 11.2248 12.5142 10.1547 12.5142H1.75293C1.20064 12.5142 0.75293 12.0664 0.75293 11.5142C0.75293 10.9619 1.20064 10.5142 1.75293 10.5142H10.1547C12.3293 10.5142 14.0922 12.277 14.0922 14.4517V14.8453C14.0922 16.8025 12.5056 18.3892 10.5483 18.3892Z" fill="#839393"/>
</svg>
