<svg width="17" height="25" viewBox="0 0 17 25" fill="none" xmlns="http://www.w3.org/2000/svg">
<path fill-rule="evenodd" clip-rule="evenodd" d="M14.7529 8.51416C14.7529 11.8279 12.0666 14.5142 8.75293 14.5142C5.43922 14.5142 2.75293 11.8279 2.75293 8.51416C2.75293 5.20045 5.43922 2.51416 8.75293 2.51416C12.0666 2.51416 14.7529 5.20045 14.7529 8.51416ZM2.75293 13.8058C1.5082 12.3955 0.752929 10.5431 0.752929 8.51416C0.752929 4.09588 4.33465 0.51416 8.75293 0.51416C13.1712 0.51416 16.7529 4.09588 16.7529 8.51416C16.7529 10.5431 15.9977 12.3955 14.7529 13.8058L14.7529 20.5142C14.7529 21.0664 14.3052 21.5142 13.7529 21.5142C13.2006 21.5142 12.7529 21.0664 12.7529 20.5142L12.7529 15.4439C11.8497 15.9664 10.8349 16.3173 9.75293 16.4523L9.75293 23.5142C9.75293 24.0664 9.30521 24.5142 8.75293 24.5142C8.20064 24.5142 7.75293 24.0664 7.75293 23.5142L7.75293 16.4523C6.67099 16.3174 5.65614 15.9664 4.75293 15.4439L4.75293 20.5142C4.75293 21.0664 4.30521 21.5142 3.75293 21.5142C3.20064 21.5142 2.75293 21.0664 2.75293 20.5142L2.75293 13.8058Z" fill="#839393"/>
</svg>
