<svg width="21" height="21" viewBox="0 0 21 21" fill="none" xmlns="http://www.w3.org/2000/svg">
<path fill-rule="evenodd" clip-rule="evenodd" d="M13.8329 2.8095C13.8342 2.80985 13.8292 2.81903 13.814 2.83603C13.824 2.81766 13.8316 2.80916 13.8329 2.8095ZM13.351 3.14573C12.7753 2.85453 11.8624 2.61942 10.7529 2.61942C9.6434 2.61942 8.73042 2.85453 8.15481 3.14573C8.73042 3.43693 9.6434 3.67205 10.7529 3.67205C11.8624 3.67205 12.7753 3.43694 13.351 3.14573ZM7.67287 2.8095C7.67415 2.80916 7.68175 2.81766 7.69178 2.83603C7.6766 2.81903 7.67158 2.80985 7.67287 2.8095ZM13.7529 5.7538V5.25118C12.9172 5.58154 11.8785 5.7773 10.7529 5.7773C9.6274 5.7773 8.58877 5.58158 7.75316 5.25129C7.75316 5.25917 7.75307 5.26704 7.7529 5.27491V6.31455C7.76143 6.32062 7.77084 6.32707 7.7812 6.33385C8.04706 6.50798 8.82419 6.82993 10.7529 6.82993C12.6816 6.82993 13.4587 6.50798 13.7246 6.33385C13.7349 6.32707 13.7443 6.32062 13.7529 6.31455V5.80172C13.7525 5.78579 13.7525 5.76981 13.7529 5.7538ZM15.6308 7.14635C15.6136 7.18813 15.594 7.23089 15.5718 7.27437C15.4176 7.57739 15.1628 7.8714 14.7812 8.12133C14.047 8.60217 12.8242 8.93519 10.7529 8.93519C8.68159 8.93519 7.45874 8.60217 6.7246 8.12133C6.34301 7.8714 6.08814 7.57739 5.93393 7.27437C5.85847 7.12611 5.81267 6.98639 5.78608 6.86445C5.78041 6.83849 5.77565 6.81348 5.77167 6.78951L2.75292 8.04191V8.17655L10.7527 10.9835L18.7528 8.17643V8.11295L15.6308 7.14635ZM6.29407 6.57278C6.41698 6.57268 6.56781 6.57262 6.7529 6.57262H6.29445L6.29407 6.57278ZM5.78067 3.4247C5.76252 3.50403 5.75291 3.58686 5.75291 3.67205V4.53443L1.38625 6.34604C1.00411 6.50458 0.75293 6.89297 0.75293 7.32535V15.994C0.75293 16.4359 1.01505 16.8307 1.40921 16.9825L10.4092 20.45C10.6311 20.5355 10.8747 20.5355 11.0966 20.45L20.0966 16.9825C20.4907 16.8307 20.7528 16.4359 20.7528 15.994V8.94954C20.753 8.94008 20.753 8.93061 20.7528 8.92113V7.32535C20.7528 6.8584 20.4606 6.44726 20.035 6.31549L15.7529 4.9897V3.67207C15.7529 3.58687 15.7432 3.50404 15.7251 3.42471C15.7435 3.33304 15.7529 3.23996 15.7529 3.14573C15.7529 1.69235 13.5143 0.51416 10.7529 0.51416C7.99147 0.51416 5.75291 1.69235 5.75291 3.14573C5.75291 3.23996 5.76232 3.33303 5.78067 3.4247ZM2.75292 15.2584V10.3957L9.75289 12.8518V17.9553L2.75292 15.2584ZM11.7529 17.9553L18.7528 15.2584V10.3956L11.7529 12.8517V17.9553Z" fill="#839393"/>
</svg>
