<svg width="15" height="21" viewBox="0 0 15 21" fill="none" xmlns="http://www.w3.org/2000/svg">
<path fill-rule="evenodd" clip-rule="evenodd" d="M6.08626 20.5142C4.98169 20.5142 4.08626 19.6187 4.08626 18.5142V12.2483C2.13288 11.4672 0.75293 9.55721 0.75293 7.32494V5.01416C0.75293 2.52888 2.76765 0.51416 5.25293 0.51416C6.3575 0.51416 7.25293 1.40959 7.25293 2.51416V6.01416C7.25293 6.2903 7.47679 6.51416 7.75293 6.51416C8.02907 6.51416 8.25293 6.2903 8.25293 6.01416V2.51416C8.25293 1.40959 9.14836 0.51416 10.2529 0.51416C12.7382 0.51416 14.7529 2.52888 14.7529 5.01416V7.32494C14.7529 9.55721 13.373 11.4672 11.4196 12.2483V18.5142C11.4196 19.6187 10.5242 20.5142 9.4196 20.5142H6.08626ZM9.4196 18.5142H6.08626V10.6583C6.08626 10.64 6.07149 10.6253 6.05326 10.6253C4.23054 10.6253 2.75293 9.14766 2.75293 7.32494V5.01416C2.75293 4.45125 2.93897 3.93179 3.25293 3.51392C3.70904 2.90683 4.43513 2.51416 5.25293 2.51416V6.01416C5.25293 7.39487 6.37222 8.51416 7.75293 8.51416C9.13364 8.51416 10.2529 7.39487 10.2529 6.01416V2.51416C11.0707 2.51416 11.7968 2.90683 12.2529 3.51392C12.5669 3.93179 12.7529 4.45125 12.7529 5.01416V7.32494C12.7529 9.14766 11.2753 10.6253 9.4526 10.6253C9.43437 10.6253 9.4196 10.64 9.4196 10.6583V18.5142Z" fill="#839393"/>
</svg>
