<svg width="21" height="21" viewBox="0 0 21 21" fill="none" xmlns="http://www.w3.org/2000/svg">
<path fill-rule="evenodd" clip-rule="evenodd" d="M3.75293 0.51416H15.7529C17.2394 0.51416 18.4734 1.5953 18.7115 3.01416H19.7525C20.3047 3.01416 20.7525 3.46188 20.7525 4.01416V10.0142C20.7525 10.5664 20.3047 11.0142 19.7525 11.0142H10.753L10.7531 12.5772C11.6156 12.7993 12.2529 13.5823 12.2529 14.5142V18.5142C12.2529 19.6187 11.3575 20.5142 10.2529 20.5142H9.25293C8.14836 20.5142 7.25293 19.6187 7.25293 18.5142V14.5142C7.25293 13.5822 7.89039 12.7991 8.75308 12.5771L8.75293 10.0142C8.75291 9.74899 8.85826 9.49462 9.0458 9.30707C9.23334 9.11952 9.4877 9.01416 9.75293 9.01416H18.7525V5.01416H18.7115C18.4734 6.43302 17.2394 7.51416 15.7529 7.51416H3.75293C2.09608 7.51416 0.75293 6.17102 0.75293 4.51416V3.51416C0.75293 1.85731 2.09608 0.51416 3.75293 0.51416ZM16.7529 3.98286C16.7526 3.99325 16.7524 4.00369 16.7524 4.01416C16.7524 4.02463 16.7526 4.03507 16.7529 4.04546V4.51416C16.7529 5.06644 16.3052 5.51416 15.7529 5.51416H3.75293C3.20065 5.51416 2.75293 5.06644 2.75293 4.51416V3.51416C2.75293 2.96188 3.20064 2.51416 3.75293 2.51416H15.7529C16.3052 2.51416 16.7529 2.96188 16.7529 3.51416V3.98286ZM9.75308 14.5142H9.25293V16.5142V18.5142H10.2529V16.5142V14.5142H9.7532C9.75316 14.5142 9.75312 14.5142 9.75308 14.5142Z" fill="#839393"/>
</svg>
