<svg width="21" height="18" viewBox="0 0 21 18" fill="none" xmlns="http://www.w3.org/2000/svg">
<path fill-rule="evenodd" clip-rule="evenodd" d="M17.7529 17.0142L3.75293 17.0142C2.09608 17.0142 0.75293 15.671 0.75293 14.0142L0.75293 9.01416C0.752931 7.3573 2.09608 6.01416 3.75293 6.01416L9.75293 6.01416L9.75293 2.01416L7.75293 2.01416C7.20065 2.01416 6.75293 1.56644 6.75293 1.01416C6.75293 0.461875 7.20065 0.014159 7.75293 0.014159L10.7529 0.0141593L13.7529 0.0141595C14.3052 0.0141596 14.7529 0.461875 14.7529 1.01416C14.7529 1.56644 14.3052 2.01416 13.7529 2.01416L11.7529 2.01416L11.7529 6.01416L17.7529 6.01416C19.4098 6.01416 20.7529 7.35731 20.7529 9.01416L20.7529 14.0142C20.7529 15.671 19.4098 17.0142 17.7529 17.0142ZM3.75293 8.01416L10.7529 8.01416L17.7529 8.01416C18.3052 8.01416 18.7529 8.46187 18.7529 9.01416L18.7529 14.0142C18.7529 14.5664 18.3052 15.0142 17.7529 15.0142L3.75293 15.0142C3.20065 15.0142 2.75293 14.5664 2.75293 14.0142L2.75293 9.01416C2.75293 8.46187 3.20065 8.01416 3.75293 8.01416Z" fill="#839393"/>
</svg>
