<svg width="21" height="21" viewBox="0 0 21 21" fill="none" xmlns="http://www.w3.org/2000/svg">
<path fill-rule="evenodd" clip-rule="evenodd" d="M2.99631 3.51633C-0.908928 7.42158 -0.908928 13.7532 2.99631 17.6585C6.90156 21.5637 13.2332 21.5637 17.1385 17.6585C21.0437 13.7532 21.0437 7.42158 17.1385 3.51633C13.2332 -0.388908 6.90156 -0.388908 2.99631 3.51633ZM15.1692 4.42464C15.3601 4.58303 15.5454 4.75167 15.7242 4.93055C16.0248 5.23114 16.2965 5.5497 16.5392 5.88277L15.1015 7.32052C14.8768 6.97512 14.613 6.64777 14.31 6.34477C14.1304 6.16512 13.9422 5.99925 13.7467 5.84715L15.1692 4.42464ZM13.4364 3.32901C11.3864 2.37768 9.01637 2.34162 6.94205 3.22084L8.51254 4.79133C9.62114 4.49505 10.7981 4.52162 11.8944 4.87103L13.4364 3.32901ZM15.9323 9.31811L17.5359 7.71455C18.277 9.64429 18.2431 11.8033 17.4342 13.7121L15.8636 12.1416C16.1101 11.2191 16.133 10.2494 15.9323 9.31811ZM14.9583 14.0646C14.7669 14.333 14.5509 14.5892 14.31 14.83C14.0691 15.071 13.8127 15.2872 13.5441 15.4786L14.9732 16.9077C15.2338 16.7049 15.4847 16.4838 15.7242 16.2443C15.9636 16.0049 16.1847 15.7541 16.3873 15.4937L14.9583 14.0646ZM11.6209 16.3838L13.1916 17.9545C11.2827 18.7632 9.12361 18.7969 7.19389 18.0557L8.79736 16.4522C9.72862 16.6529 10.6984 16.6302 11.6209 16.3838ZM5.82474 14.83C6.12759 15.1329 6.45476 15.3966 6.79996 15.6212L5.36223 17.0589C5.02935 16.8162 4.71096 16.5447 4.41053 16.2443C4.2315 16.0652 4.06273 15.8798 3.90422 15.6888L5.32674 14.2663C5.47894 14.4619 5.64494 14.6503 5.82474 14.83ZM4.35079 12.4138C4.00179 11.3183 3.97512 10.1423 4.27078 9.03455L2.70007 7.46385C1.82171 9.53754 1.85792 11.9065 2.80871 13.9559L4.35079 12.4138ZM5.16061 4.26783C4.90036 4.47041 4.64975 4.69132 4.41053 4.93055C4.17087 5.17021 3.94959 5.42129 3.7467 5.68205L5.17583 7.11118C5.36733 6.84241 5.58363 6.58588 5.82474 6.34477C6.06542 6.10409 6.32145 5.88814 6.58969 5.69691L5.16061 4.26783ZM7.23896 7.75898C8.80105 6.19688 11.3337 6.19688 12.8958 7.75898C14.4579 9.32108 14.4579 11.8537 12.8958 13.4158C11.3337 14.9779 8.80105 14.9779 7.23896 13.4158C5.67686 11.8537 5.67686 9.32108 7.23896 7.75898Z" fill="#839393"/>
</svg>
