<svg width="21" height="21" viewBox="0 0 21 21" fill="none" xmlns="http://www.w3.org/2000/svg">
<path fill-rule="evenodd" clip-rule="evenodd" d="M16.2446 0.51416C15.4147 0.51416 14.7411 1.18692 14.7411 2.01682C14.7411 2.84672 15.4147 3.51948 16.2446 3.51948C17.0745 3.51948 17.7482 2.84672 17.7482 2.01682C17.7482 1.18692 17.0745 0.51416 16.2446 0.51416ZM1.84017 14.2246L11.3028 4.7674C12.1429 3.92776 13.505 3.92777 14.3451 4.7674L16.5148 6.9358C17.3549 7.77543 17.3549 9.13674 16.5148 9.97637L7.05214 19.4336C5.61289 20.872 3.27942 20.872 1.84018 19.4336C0.400936 17.9952 0.400926 15.663 1.84017 14.2246ZM12.7174 6.1812L9.75376 9.14317L12.1365 11.5245L15.1002 8.56256C15.159 8.50375 15.159 8.40841 15.1002 8.3496L12.9305 6.1812C12.8717 6.1224 12.7763 6.1224 12.7174 6.1812ZM3.25479 15.6384L8.33914 10.557L10.7219 12.9383L5.63752 18.0198C4.97955 18.6774 3.91277 18.6774 3.25479 18.0198C2.59682 17.3622 2.59682 16.296 3.25479 15.6384ZM17.7498 11.0328C17.7498 10.2029 18.4234 9.53012 19.2533 9.53012C20.0832 9.53012 20.7568 10.2029 20.7568 11.0328C20.7568 11.8627 20.0832 12.5354 19.2533 12.5354C18.4234 12.5354 17.7498 11.8627 17.7498 11.0328ZM10.2306 0.51416C9.40066 0.51416 8.72703 1.18692 8.72703 2.01682C8.72703 2.84672 9.40066 3.51948 10.2306 3.51948C11.0604 3.51948 11.7341 2.84672 11.7341 2.01682C11.7341 1.18692 11.0604 0.51416 10.2306 0.51416Z" fill="#839393"/>
</svg>
