<svg width="21" height="21" viewBox="0 0 21 21" fill="none" xmlns="http://www.w3.org/2000/svg">
<path fill-rule="evenodd" clip-rule="evenodd" d="M18.7529 18.5142L15.7529 18.5142L15.7529 14.5142L18.7529 14.5142L18.7529 18.5142ZM10.7529 18.5142L13.7529 18.5142L13.7529 14.5142L10.7529 14.5142L10.7529 18.5142ZM8.75293 18.5142L4.75293 18.5142C3.64836 18.5142 2.75293 17.6187 2.75293 16.5142C2.75293 15.4096 3.64836 14.5142 4.75293 14.5142L8.75293 14.5142L8.75293 18.5142ZM2.75293 12.1212L5.27243 9.60167L6.75293 8.12117L6.75293 6.18083L6.75293 2.51416L2.75293 2.51416L2.75293 10.8475L2.75293 12.1212ZM8.75293 6.12117L12.1078 2.76631C12.8888 1.98526 14.1552 1.98526 14.9362 2.76631L17.7646 5.59474C18.5457 6.37578 18.5457 7.64211 17.7646 8.42316L14.7005 11.4873L13.6737 12.5142L18.9347 12.5142C19.9389 12.5142 20.7529 13.3282 20.7529 14.3323L20.7529 18.696C20.7529 19.7001 19.9389 20.5142 18.9347 20.5142L4.75293 20.5142C2.54379 20.5142 0.75293 18.7233 0.75293 16.5142L0.75293 10.8475L0.75293 2.51416C0.75293 1.40959 1.64836 0.51416 2.75293 0.51416L6.75293 0.51416C7.8575 0.51416 8.75293 1.40959 8.75293 2.51416L8.75293 6.12117ZM6.68664 11.0159L5.18837 12.5142L10.8452 12.5142L13.2863 10.0731L16.3504 7.00895L13.522 4.18052L6.68664 11.0159Z" fill="#839393"/>
</svg>
