<svg width="17" height="21" viewBox="0 0 17 21" fill="none" xmlns="http://www.w3.org/2000/svg">
<path fill-rule="evenodd" clip-rule="evenodd" d="M6.09961 5.66846L4.09961 5.66846H2.09961L2.09961 6.66846H3.09719L3.09961 6.66846L12.0996 6.66846L13.0996 6.66846L13.102 6.66846H14.0996V5.66846L12.0996 5.66846L10.0996 5.66846L6.09961 5.66846ZM10.0996 3.66846C10.0996 3.11617 9.65189 2.66846 9.09961 2.66846L7.09961 2.66846C6.54733 2.66846 6.09961 3.11617 6.09961 3.66846L9.09961 3.66846H10.0996ZM4.09961 3.66846C4.09961 2.0116 5.44275 0.668457 7.09961 0.668457H9.09961C10.7565 0.668457 12.0996 2.0116 12.0996 3.66846L14.0996 3.66846C14.63 3.66846 15.1388 3.87917 15.5138 4.25424C15.8889 4.62932 16.0996 5.13802 16.0996 5.66846V6.66846C16.0996 7.41561 15.6899 8.06708 15.0829 8.41045C15.094 8.49555 15.0996 8.58171 15.0996 8.66846L15.0996 17.6685C15.0996 19.3253 13.7565 20.6685 12.0996 20.6685H4.09961C2.44276 20.6685 1.09961 19.3253 1.09961 17.6685L1.09961 8.66846C1.09961 8.58099 1.10522 8.49484 1.11611 8.41034C0.509222 8.06694 0.0996094 7.41553 0.0996094 6.66846V5.66846C0.0996094 4.56389 0.99504 3.66846 2.09961 3.66846L4.09961 3.66846ZM3.09961 10.6685L3.09961 8.66846L5.09961 8.66846V14.6685C5.09961 15.2207 5.54733 15.6685 6.09961 15.6685C6.6519 15.6685 7.09961 15.2207 7.09961 14.6685V8.66846H9.09961V14.6685C9.09961 15.2207 9.54733 15.6685 10.0996 15.6685C10.6519 15.6685 11.0996 15.2207 11.0996 14.6685V8.66846L13.0996 8.66846V10.6685L13.0996 17.6685C13.0996 18.2207 12.6519 18.6685 12.0996 18.6685H4.09961C3.54733 18.6685 3.09961 18.2207 3.09961 17.6685L3.09961 10.6685Z" fill="#839393"/>
</svg>
