<svg width="20" height="18" viewBox="0 0 20 18" fill="none" xmlns="http://www.w3.org/2000/svg">
<path fill-rule="evenodd" clip-rule="evenodd" d="M0 2C0 0.895431 0.89543 0 2 0H13C16.866 0 20 3.13401 20 7V13.8713C20 14.4947 19.4947 15 18.8713 15H17.9646C17.7219 16.6961 16.2632 18 14.5 18C12.7368 18 11.2781 16.6961 11.0354 15H7.96456C7.72194 16.6961 6.26324 18 4.5 18C3.05127 18 1.80812 17.1198 1.27617 15.865C0.529379 15.575 0 14.8493 0 14V10V8V2ZM7.66318 13H11.3368C11.6826 12.2722 12.2722 11.6826 13 11.3368V10H2V12.0505C2.63526 11.4022 3.52066 11 4.5 11C5.8962 11 7.10145 11.8175 7.66318 13ZM13 14.5C13 15.3284 13.6716 16 14.5 16C15.3284 16 16 15.3284 16 14.5C16 13.6716 15.3284 13 14.5 13C13.6716 13 13 13.6716 13 14.5ZM2 8H13L13 2L2 2V8ZM15 11.0354C16.1798 11.2042 17.1698 11.9613 17.6632 13H18V8H15V11.0354ZM15 6H17.9C17.5729 4.38867 16.4709 3.05873 15 2.41604V6ZM4.5 13C3.67157 13 3 13.6716 3 14.5C3 15.3284 3.67157 16 4.5 16C5.32843 16 6 15.3284 6 14.5C6 13.6716 5.32843 13 4.5 13Z" fill="#2AB997"/>
</svg>
