<svg width="21" height="18" viewBox="0 0 21 18" fill="none" xmlns="http://www.w3.org/2000/svg">
<path fill-rule="evenodd" clip-rule="evenodd" d="M1.75391 0C1.20162 0 0.753906 0.447715 0.753906 1C0.753906 1.55228 1.20162 2 1.75391 2H1.75523H1.75728H1.76721H1.80566H1.94922H2.44141H2.89599L4.76553 15.1521C4.84059 15.6399 5.26033 16 5.75391 16C5.75391 17.1046 6.64934 18 7.75391 18C8.85848 18 9.75391 17.1046 9.75391 16H12.7539C12.7539 17.1046 13.6493 18 14.7539 18C15.8585 18 16.7539 17.1046 16.7539 16H17.2539C17.8062 16 18.2539 15.5523 18.2539 15C18.2539 14.4477 17.8062 14 17.2539 14H14.7539H7.75391H6.61183L6.45798 12H16.7539C17.1707 12 17.5439 11.7414 17.6902 11.3511L20.6902 3.35112C20.8054 3.04403 20.7626 2.69998 20.5758 2.43041C20.389 2.16083 20.0819 2 19.7539 2H4.91952L4.74228 0.847943C4.66723 0.360111 4.24748 0 3.75391 0H2.44141H1.94922H1.80566H1.76721H1.75728H1.75581H1.75391ZM5.22721 4L6.15029 10H16.0609L18.3109 4H5.22721Z" fill="#2AB997"/>
</svg>
