<svg width="21" height="18" viewBox="0 0 21 18" fill="none" xmlns="http://www.w3.org/2000/svg">
<path fill-rule="evenodd" clip-rule="evenodd" d="M1.25391 0C0.701621 0 0.253906 0.447715 0.253906 1C0.253906 1.55228 0.701621 2 1.25391 2H1.25523H1.25728H1.26721H1.30566H1.44922H1.94141H2.39599L4.26553 15.1521C4.34059 15.6399 4.76033 16 5.25391 16C5.25391 17.1046 6.14934 18 7.25391 18C8.35848 18 9.25391 17.1046 9.25391 16H12.2539C12.2539 17.1046 13.1493 18 14.2539 18C15.3585 18 16.2539 17.1046 16.2539 16H16.7539C17.3062 16 17.7539 15.5523 17.7539 15C17.7539 14.4477 17.3062 14 16.7539 14H14.2539H7.25391H6.11183L5.95798 12H16.2539C16.6707 12 17.0439 11.7414 17.1902 11.3511L20.1902 3.35112C20.3054 3.04403 20.2626 2.69998 20.0758 2.43041C19.889 2.16083 19.5819 2 19.2539 2H4.41952L4.24228 0.847943C4.16723 0.360111 3.74748 0 3.25391 0H1.94141H1.44922H1.30566H1.26721H1.25728H1.25581H1.25391Z" fill="#2AB997"/>
</svg>
