<svg width="21" height="20" viewBox="0 0 21 20" fill="none" xmlns="http://www.w3.org/2000/svg">
<path fill-rule="evenodd" clip-rule="evenodd" d="M7.12354 0H3.12354C1.74282 0 0.623535 1.11929 0.623535 2.5V6.5C0.623535 7.88071 1.74282 9 3.12354 9H7.12354C8.50425 9 9.62354 7.88071 9.62354 6.5V2.5C9.62354 1.11929 8.50425 0 7.12354 0ZM2.62354 2.5C2.62354 2.22386 2.84739 2 3.12354 2H7.12354C7.39968 2 7.62354 2.22386 7.62354 2.5V6.5C7.62354 6.77614 7.39968 7 7.12354 7H3.12354C2.84739 7 2.62354 6.77614 2.62354 6.5V2.5ZM7.12354 11H3.12354C1.74282 11 0.623535 12.1193 0.623535 13.5V17.5C0.623535 18.8807 1.74282 20 3.12354 20H7.12354C8.50425 20 9.62354 18.8807 9.62354 17.5V13.5C9.62354 12.1193 8.50425 11 7.12354 11ZM2.62354 13.5C2.62354 13.2239 2.84739 13 3.12354 13H7.12354C7.39968 13 7.62354 13.2239 7.62354 13.5V17.5C7.62354 17.7761 7.39968 18 7.12354 18H3.12354C2.84739 18 2.62354 17.7761 2.62354 17.5V13.5ZM14.1235 11H18.1235C19.5042 11 20.6235 12.1193 20.6235 13.5V17.5C20.6235 18.8807 19.5042 20 18.1235 20H14.1235C12.7428 20 11.6235 18.8807 11.6235 17.5V13.5C11.6235 12.1193 12.7428 11 14.1235 11ZM14.1235 13C13.8474 13 13.6235 13.2239 13.6235 13.5V17.5C13.6235 17.7761 13.8474 18 14.1235 18H18.1235C18.3997 18 18.6235 17.7761 18.6235 17.5V13.5C18.6235 13.2239 18.3997 13 18.1235 13H14.1235ZM18.1235 0H14.1235C12.7428 0 11.6235 1.11929 11.6235 2.5V6.5C11.6235 7.88071 12.7428 9 14.1235 9H18.1235C19.5042 9 20.6235 7.88071 20.6235 6.5V2.5C20.6235 1.11929 19.5042 0 18.1235 0ZM13.6235 2.5C13.6235 2.22386 13.8474 2 14.1235 2H18.1235C18.3997 2 18.6235 2.22386 18.6235 2.5V6.5C18.6235 6.77614 18.3997 7 18.1235 7H14.1235C13.8474 7 13.6235 6.77614 13.6235 6.5V2.5Z" fill="#2AB997"/>
</svg>
