<svg width="21" height="20" viewBox="0 0 21 20" fill="none" xmlns="http://www.w3.org/2000/svg">
<path fill-rule="evenodd" clip-rule="evenodd" d="M18.5142 10C18.5142 14.4183 14.9324 18 10.5142 18C6.09588 18 2.51416 14.4183 2.51416 10C2.51416 5.58172 6.09588 2 10.5142 2C14.9324 2 18.5142 5.58172 18.5142 10ZM20.5142 10C20.5142 15.5228 16.037 20 10.5142 20C4.99131 20 0.51416 15.5228 0.51416 10C0.51416 4.47715 4.99131 0 10.5142 0C16.037 0 20.5142 4.47715 20.5142 10ZM11.5142 5C11.5142 4.44772 11.0664 4 10.5142 4C9.96187 4 9.51416 4.44772 9.51416 5V10C9.51416 10.3148 9.66235 10.6111 9.91416 10.8L13.9142 13.8C14.356 14.1314 14.9828 14.0418 15.3142 13.6C15.6455 13.1582 15.556 12.5314 15.1142 12.2L11.5142 9.5V5Z" fill="#2AB997"/>
</svg>
