<svg width="15" height="15" viewBox="0 0 15 15" fill="none" xmlns="http://www.w3.org/2000/svg">
<path fill-rule="evenodd" clip-rule="evenodd" d="M14.6622 1.73543C15.0527 1.3449 15.0527 0.711738 14.6622 0.321213C14.2717 -0.0693108 13.6385 -0.0693107 13.248 0.321214L7.95508 5.61411L2.66219 0.321214C2.27166 -0.0693106 1.6385 -0.0693108 1.24797 0.321213C0.857449 0.711738 0.857449 1.3449 1.24797 1.73543L6.54086 7.02832L1.24797 12.3212C0.857447 12.7117 0.857447 13.3449 1.24797 13.7354C1.6385 14.126 2.27166 14.126 2.66218 13.7354L7.95508 8.44253L13.248 13.7354C13.6385 14.126 14.2717 14.126 14.6622 13.7354C15.0527 13.3449 15.0527 12.7117 14.6622 12.3212L9.36929 7.02832L14.6622 1.73543Z" fill="#839393"/>
</svg>
