<svg width="20" height="17" viewBox="0 0 20 17" fill="none" xmlns="http://www.w3.org/2000/svg">
<path d="M11.053 16.7C10.4168 17.0943 9.61362 17.1003 8.97152 16.7157L8.96752 16.7133L8.96095 16.7093L8.9402 16.6967C8.92305 16.6863 8.89931 16.6718 8.8694 16.6533C8.80959 16.6164 8.725 16.5636 8.61891 16.496C8.40691 16.3607 8.10812 16.1655 7.74906 15.9184C7.03368 15.4259 6.06543 14.7178 5.06254 13.8585C4.06529 13.0039 2.99565 11.9675 2.10359 10.8133C1.22404 9.67525 0.424685 8.30467 0.130483 6.78682C-0.205204 5.05495 0.0965686 3.3269 1.15486 2.00009C2.21997 0.664732 3.84152 0 5.60747 0C7.43114 0 8.94705 0.858975 9.8875 1.54462C9.92537 1.57223 9.96267 1.59983 9.99939 1.62737C10.0361 1.59983 10.0734 1.57223 10.1113 1.54462C11.0517 0.858975 12.5676 0 14.3913 0C18.3364 0 20.6123 3.65474 19.8509 6.86746C19.5018 8.34055 18.693 9.68205 17.8118 10.8083C16.9183 11.9501 15.8623 12.9815 14.8797 13.836C13.8921 14.6949 12.9444 15.4046 12.245 15.8991C11.8941 16.1473 11.6027 16.3434 11.396 16.4793C11.2927 16.5473 11.2103 16.6003 11.1521 16.6374L11.1126 16.6625L11.0833 16.681L11.0632 16.6936L11.0569 16.6976L11.053 16.7Z" fill="#2AB997"/>
</svg>
