<svg width="21" height="18" viewBox="0 0 21 18" fill="none" xmlns="http://www.w3.org/2000/svg">
<path fill-rule="evenodd" clip-rule="evenodd" d="M9.22604 17.2157L10.2539 15.5L11.3075 17.2C10.6713 17.5943 9.86814 17.6003 9.22604 17.2157ZM8.74608 3.50745C7.97308 2.98243 6.96317 2.5 5.86199 2.5C3.33664 2.5 1.85437 4.35714 2.34846 6.90625C3.19439 11.2706 10.2539 15.5 10.2539 15.5C9.22604 17.2157 9.22643 17.2159 9.22604 17.2157L9.22204 17.2133L9.21546 17.2093L9.19472 17.1967C9.17757 17.1863 9.15383 17.1718 9.12392 17.1533C9.06411 17.1164 8.97951 17.0636 8.87343 16.996C8.66142 16.8607 8.36263 16.6655 8.00358 16.4184C7.2882 15.9259 6.31995 15.2178 5.31705 14.3585C4.31981 13.5039 3.25016 12.4675 2.3581 11.3133C1.47856 10.1752 0.679201 8.80467 0.384999 7.28682C0.0493128 5.55495 0.351085 3.8269 1.40938 2.50009C2.47449 1.16473 4.09604 0.5 5.86199 0.5C7.68565 0.5 9.20157 1.35898 10.142 2.04462C10.1799 2.07223 10.2172 2.09983 10.2539 2.12737C10.2906 2.09983 10.3279 2.07223 10.3658 2.04462C11.3062 1.35898 12.8222 0.5 14.6458 0.5C18.591 0.5 20.8668 4.15474 20.1054 7.36746C19.7563 8.84055 18.9475 10.1821 18.0663 11.3083C17.1728 12.4501 16.1168 13.4815 15.1342 14.336C14.1467 15.1949 13.1989 15.9046 12.4995 16.3991C12.1486 16.6473 11.8572 16.8434 11.6506 16.9793C11.5472 17.0473 11.4648 17.1003 11.4066 17.1374C11.3919 17.1468 11.3787 17.1552 11.3671 17.1625C11.3558 17.1697 11.3461 17.1759 11.3378 17.181L11.3177 17.1936L11.3114 17.1976L11.3075 17.2C11.3072 17.2002 11.3075 17.2 10.2539 15.5C10.2539 15.5 17.1332 11.2363 18.1594 6.90625C18.6534 4.82142 17.1712 2.5 14.6458 2.5C13.5446 2.5 12.5347 2.98243 11.7617 3.50745C10.8391 4.13411 10.2539 4.82143 10.2539 4.82143C10.2539 4.82143 9.66875 4.13411 8.74608 3.50745Z" fill="#839393"/>
</svg>
