<svg width="21" height="16" viewBox="0 0 21 16" fill="none" xmlns="http://www.w3.org/2000/svg">
<path fill-rule="evenodd" clip-rule="evenodd" d="M3.51416 0C1.85731 0 0.51416 1.34315 0.51416 3V13C0.51416 14.6569 1.85731 16 3.51416 16H17.5142C19.171 16 20.5142 14.6569 20.5142 13V3C20.5142 1.34315 19.171 0 17.5142 0H3.51416ZM2.60548 2.58194C2.76377 2.23843 3.11112 2 3.51416 2H17.5142C17.9172 2 18.2645 2.23843 18.4228 2.58194L11.1281 8.25563C10.767 8.53649 10.2613 8.53649 9.90022 8.25563L2.60548 2.58194ZM2.51416 5.04464V10.865L6.12677 7.85445L2.51416 5.04464ZM2.59706 13.3993C2.75121 13.7529 3.10382 14 3.51416 14H17.5142C17.9245 14 18.2771 13.7529 18.4313 13.3993L13.2856 9.11127L12.356 9.83433C11.2727 10.6769 9.75567 10.6769 8.67234 9.83433L7.74269 9.11127L2.59706 13.3993ZM18.5142 10.865V5.04464L14.9015 7.85445L18.5142 10.865Z" fill="#2AB997"/>
</svg>
