<svg width="21" height="21" viewBox="0 0 21 21" fill="none" xmlns="http://www.w3.org/2000/svg">
<path fill-rule="evenodd" clip-rule="evenodd" d="M11.0449 1.03613C11.0449 0.483848 10.5972 0.0361328 10.0449 0.0361328C9.49264 0.0361328 9.04492 0.483848 9.04492 1.03613V4.03613C9.04492 4.58842 9.49264 5.03613 10.0449 5.03613C10.5972 5.03613 11.0449 4.58842 11.0449 4.03613V1.03613ZM11.0449 16.0361C11.0449 15.4838 10.5972 15.0361 10.0449 15.0361C9.49264 15.0361 9.04492 15.4838 9.04492 16.0361V19.0361C9.04492 19.5884 9.49264 20.0361 10.0449 20.0361C10.5972 20.0361 11.0449 19.5884 11.0449 19.0361V16.0361ZM0.0449219 10.0361C0.0449219 9.48385 0.492637 9.03613 1.04492 9.03613H4.04492C4.59721 9.03613 5.04492 9.48385 5.04492 10.0361C5.04492 10.5884 4.59721 11.0361 4.04492 11.0361H1.04492C0.492637 11.0361 0.0449219 10.5884 0.0449219 10.0361ZM16.0449 9.03613C15.4926 9.03613 15.0449 9.48385 15.0449 10.0361C15.0449 10.5884 15.4926 11.0361 16.0449 11.0361H19.0449C19.5972 11.0361 20.0449 10.5884 20.0449 10.0361C20.0449 9.48385 19.5972 9.03613 19.0449 9.03613H16.0449ZM2.97453 17.1073C2.58401 16.7167 2.58401 16.0836 2.97453 15.693L5.09585 13.5717C5.48638 13.1812 6.11954 13.1812 6.51007 13.5717C6.90059 13.9622 6.90059 14.5954 6.51007 14.9859L4.38875 17.1073C3.99822 17.4978 3.36506 17.4978 2.97453 17.1073ZM13.58 5.08635C13.1895 5.47687 13.1895 6.11004 13.58 6.50056C13.9705 6.89109 14.6037 6.89109 14.9942 6.50056L17.1155 4.37924C17.5061 3.98872 17.5061 3.35555 17.1155 2.96503C16.725 2.57451 16.0918 2.57451 15.7013 2.96503L13.58 5.08635ZM17.1153 17.1066C16.7248 17.4972 16.0916 17.4972 15.7011 17.1066L13.5798 14.9853C13.1893 14.5948 13.1893 13.9616 13.5798 13.5711C13.9703 13.1806 14.6035 13.1806 14.994 13.5711L17.1153 15.6924C17.5058 16.083 17.5058 16.7161 17.1153 17.1066ZM5.09563 6.50117C5.48615 6.8917 6.11932 6.8917 6.50984 6.50117C6.90037 6.11065 6.90037 5.47748 6.50984 5.08696L4.38852 2.96564C3.998 2.57512 3.36483 2.57512 2.97431 2.96564C2.58378 3.35617 2.58378 3.98933 2.97431 4.37985L5.09563 6.50117Z" fill="#839393"/>
</svg>
