<svg width="16" height="16" viewBox="0 0 16 16" fill="none" xmlns="http://www.w3.org/2000/svg">
<path fill-rule="evenodd" clip-rule="evenodd" d="M8.25391 15.5C4.11177 15.5 0.753906 12.1421 0.753906 8C0.753906 3.85786 4.11177 0.5 8.25391 0.5C12.396 0.5 15.7539 3.85786 15.7539 8C15.7539 12.1421 12.396 15.5 8.25391 15.5ZM8.25391 2C4.9402 2 2.25391 4.68629 2.25391 8C2.25391 11.3137 4.9402 14 8.25391 14C11.5676 14 14.2539 11.3137 14.2539 8C14.2539 4.68629 11.5676 2 8.25391 2ZM11.0342 5.21967C11.3271 5.51256 11.3271 5.98744 11.0342 6.28033L9.31457 8L11.0342 9.71967C11.3271 10.0126 11.3271 10.4874 11.0342 10.7803C10.7413 11.0732 10.2665 11.0732 9.97358 10.7803L8.25391 9.06066L6.53424 10.7803C6.24134 11.0732 5.76647 11.0732 5.47358 10.7803C5.18068 10.4874 5.18068 10.0126 5.47358 9.71967L7.19325 8L5.47358 6.28033C5.18068 5.98744 5.18068 5.51256 5.47358 5.21967C5.76647 4.92678 6.24134 4.92678 6.53424 5.21967L8.25391 6.93934L9.97358 5.21967C10.2665 4.92678 10.7413 4.92678 11.0342 5.21967Z" fill="#839393"/>
</svg>
