<svg width="21" height="20" viewBox="0 0 21 20" fill="none" xmlns="http://www.w3.org/2000/svg">
<path fill-rule="evenodd" clip-rule="evenodd" d="M4.81793 1.99792C4.81795 1.99791 4.8182 1.99817 4.8186 1.99878L4.81793 1.99792ZM4.86099 2.06621L6.86826 5.26003C6.6257 5.48999 6.36113 5.71777 6.07639 5.96291C5.83166 6.17359 5.57204 6.39711 5.2987 6.64585C4.62121 7.26238 4.49035 8.25394 4.92882 9.02561C7.24742 13.1062 10.4098 14.963 11.8249 15.6296C12.6774 16.0312 13.6036 15.7143 14.1192 15.058L15.5082 13.2899C15.5091 13.2888 15.509 13.2891 15.5084 13.2894C15.5084 13.2895 15.5093 13.2889 15.5114 13.2885C15.5136 13.2882 15.5157 13.2882 15.5174 13.2885C15.5186 13.2888 15.5204 13.2892 15.5233 13.291C16.3327 13.7906 17.4619 14.4694 18.4991 15.0442C18.3129 16.1688 17.8849 16.824 17.4131 17.2246C16.9177 17.6451 16.277 17.8665 15.5623 17.9464C14.1355 18.106 12.687 17.6731 12.3657 17.5677C12.0113 17.3864 10.0677 16.3634 7.99133 14.7056C5.85025 12.9961 3.70334 10.7178 2.88225 8.10491C2.28216 6.19529 2.50844 4.85151 2.98009 3.92459C3.43604 3.02852 4.17388 2.42034 4.86099 2.06621ZM4.13487 0.175965C5.0808 -0.272689 6.05893 0.195095 6.51453 0.920022L8.61442 4.26123C9.03894 4.9367 9.06805 5.92415 8.3779 6.60058C8.08212 6.89048 7.67061 7.24679 7.28767 7.57836C7.07748 7.76036 6.87589 7.93491 6.70678 8.08692C8.70229 11.5617 11.3702 13.1693 12.5836 13.7572L13.9343 12.0378C14.572 11.226 15.7075 11.0363 16.5722 11.57C17.3721 12.0636 18.478 12.7281 19.4801 13.2829C20.1485 13.653 20.6266 14.4244 20.4911 15.2954C20.2478 16.8596 19.6124 17.999 18.7068 18.7678C17.8163 19.5237 16.7556 19.8444 15.7839 19.953C13.8727 20.1668 12.0447 19.588 11.7108 19.4763C11.6263 19.4479 11.5562 19.4181 11.4808 19.3798C11.1224 19.1977 9.01046 18.0965 6.74432 16.2872C4.50175 14.4967 1.97267 11.9066 0.969298 8.71365C0.232271 6.36823 0.450297 4.46651 1.19427 3.0044C1.92521 1.56791 3.10891 0.662575 4.13487 0.175965Z" fill="#2AB997"/>
</svg>
