<svg width="18" height="19" viewBox="0 0 18 19" fill="none" xmlns="http://www.w3.org/2000/svg">
<path fill-rule="evenodd" clip-rule="evenodd" d="M10.1943 1.86509C10.1943 1.24924 9.6951 0.75 9.07925 0.75C8.4634 0.75 7.96415 1.24924 7.96415 1.86509L7.96415 8.55566L1.1151 8.55566C0.499245 8.55566 0 9.0549 0 9.67075C0 10.2866 0.499245 10.7858 1.11509 10.7858H7.96415L7.96415 17.6349C7.96415 18.2508 8.4634 18.75 9.07924 18.75C9.6951 18.75 10.1943 18.2508 10.1943 17.6349L10.1943 10.7858H16.8849C17.5008 10.7858 18 10.2866 18 9.67075C18 9.0549 17.5008 8.55566 16.8849 8.55566L10.1943 8.55566L10.1943 1.86509Z" fill="#839393"/>
</svg>
