<svg width="49" height="54" viewBox="0 0 49 54" fill="none" xmlns="http://www.w3.org/2000/svg">
<path fill-rule="evenodd" clip-rule="evenodd" d="M24.9551 24.5503L15.6217 21.8836L6.52325 24.4832C6.40556 24.5168 6.28841 24.4285 6.28841 24.3061C6.28841 24.1019 6.29173 23.8985 6.29832 23.696C6.34914 22.1342 6.59437 20.6215 7.01058 19.1814C7.05129 19.0405 7.09363 18.9004 7.13759 18.7609C9.49077 11.2963 16.4687 5.88363 24.7108 5.88363H25.1993C33.4414 5.88363 40.4194 11.2963 42.7726 18.7609C42.8165 18.9004 42.8589 19.0405 42.8996 19.1814C43.3158 20.6215 43.561 22.1341 43.6118 23.696C43.6184 23.8985 43.6217 24.1019 43.6217 24.3061C43.6217 24.4285 43.5046 24.5168 43.3869 24.4832L34.2884 21.8836L24.9551 24.5503ZM34.2884 27.4304L41.9217 29.6113C45.4465 30.6184 48.9551 27.9718 48.9551 24.3061C48.9551 11.1861 38.3193 0.550293 25.1993 0.550293H24.7108C11.5909 0.550293 0.955078 11.1861 0.955078 24.3061C0.955078 27.9718 4.46372 30.6184 7.98843 29.6113L15.6217 27.4304L23.4899 29.6784C24.4475 29.952 25.4626 29.952 26.4203 29.6784L34.2884 27.4304Z" fill="#839393"/>
<path fill-rule="evenodd" clip-rule="evenodd" d="M14.8397 19.7134C15.7379 15.0429 17.8742 8.68717 22.7738 1.68773L27.143 4.74619C22.7093 11.0801 20.8456 16.7243 20.0771 20.7206C19.6921 22.7228 19.5806 24.3188 19.5622 25.3879C19.553 25.9224 19.567 26.3248 19.5816 26.5798C19.589 26.7073 19.5964 26.7979 19.6012 26.8496L19.6059 26.8978L19.6056 26.8948L19.6051 26.891C19.6051 26.891 19.6045 26.8862 16.9584 27.217C14.3124 27.5477 14.312 27.545 14.312 27.545L14.3116 27.542L14.3108 27.5352L14.3089 27.5188L14.3038 27.4741C14.3 27.4391 14.2954 27.3937 14.2903 27.3382C14.2801 27.2272 14.268 27.0756 14.2571 26.8853C14.2352 26.5049 14.218 25.9698 14.2297 25.296C14.2529 23.9484 14.3915 22.0444 14.8397 19.7134Z" fill="#839393"/>
<path fill-rule="evenodd" clip-rule="evenodd" d="M35.0704 19.7134C34.1723 15.0429 32.036 8.68717 27.1364 1.68773L22.7671 4.74619C27.2008 11.0801 29.0645 16.7243 29.8331 20.7206C30.2181 22.7228 30.3295 24.3188 30.348 25.3879C30.3572 25.9224 30.3431 26.3248 30.3285 26.5798C30.3212 26.7073 30.3137 26.7979 30.309 26.8496L30.3042 26.8978L30.3046 26.8948L30.3051 26.891C30.3051 26.891 30.3057 26.8862 32.9517 27.217C35.5978 27.5477 35.5982 27.545 35.5982 27.545L35.5985 27.542L35.5993 27.5352L35.6013 27.5188L35.6063 27.4741C35.6101 27.4391 35.6148 27.3937 35.6199 27.3382C35.6301 27.2272 35.6422 27.0756 35.6531 26.8853C35.6749 26.5049 35.6921 25.9698 35.6805 25.296C35.6573 23.9484 35.5187 22.0444 35.0704 19.7134Z" fill="#839393"/>
<path fill-rule="evenodd" clip-rule="evenodd" d="M24.9551 27.217C26.4278 27.217 27.6217 28.4109 27.6217 29.8836V45.8836C27.6217 50.3019 24.04 53.8836 19.6217 53.8836C15.2035 53.8836 11.6217 50.3019 11.6217 45.8836V44.1059C11.6217 42.6331 12.8157 41.4392 14.2884 41.4392C15.7612 41.4392 16.9551 42.6331 16.9551 44.1059V45.8836C16.9551 47.3564 18.149 48.5503 19.6217 48.5503C21.0945 48.5503 22.2884 47.3564 22.2884 45.8836V29.8836C22.2884 28.4109 23.4823 27.217 24.9551 27.217Z" fill="#839393"/>
</svg>
