<svg width="8" height="14" viewBox="0 0 8 14" fill="none" xmlns="http://www.w3.org/2000/svg">
<path d="M6.76667 7.42083C7.34028 7.94583 7.62708 8.5875 7.62708 9.34583C7.62708 9.79306 7.52014 10.2208 7.30625 10.6292C7.09236 11.0375 6.79583 11.3632 6.41667 11.6062C6.00833 11.8979 5.50278 12.0875 4.9 12.175V13.4438H3.60208V12.1604C2.70764 11.9951 2.02708 11.5722 1.56042 10.8917C1.10347 10.2986 0.875 9.63264 0.875 8.89375H2.1875C2.1875 9.37986 2.34306 9.80278 2.65417 10.1625C3.0625 10.6972 3.5875 10.9646 4.22917 10.9646C4.87083 10.9646 5.37639 10.8042 5.74583 10.4833C6.09583 10.1917 6.27083 9.80278 6.27083 9.31667C6.27083 8.87917 6.07153 8.50972 5.67292 8.20833C5.48819 8.0625 5.27431 7.93125 5.03125 7.81458C4.79792 7.68819 4.51111 7.55694 4.17083 7.42083C3.84028 7.28472 3.60208 7.18264 3.45625 7.11458C2.62986 6.75486 2.02708 6.34167 1.64792 5.875C1.25903 5.41806 1.06458 4.85903 1.06458 4.19792C1.06458 3.35208 1.37083 2.64722 1.98333 2.08333C2.43056 1.68472 2.97014 1.43194 3.60208 1.325V0.0416664H4.9V1.35417C5.6 1.50972 6.17361 1.84514 6.62083 2.36042C7.14583 2.94375 7.41319 3.62431 7.42292 4.40208H6.06667C6.06667 3.94514 5.90625 3.53194 5.58542 3.1625C5.20625 2.73472 4.75417 2.52083 4.22917 2.52083C3.68472 2.52083 3.24236 2.69097 2.90208 3.03125C2.58125 3.33264 2.42083 3.71667 2.42083 4.18333C2.42083 4.55278 2.52778 4.86389 2.74167 5.11667C2.98472 5.4375 3.50486 5.75833 4.30208 6.07917C4.98264 6.35139 5.49306 6.57986 5.83333 6.76458C6.17361 6.93958 6.48472 7.15833 6.76667 7.42083Z" fill="#839393"/>
</svg>
